# xmcd
#
# Track frame offsets: 
#        150
#        13542
#        32907
#        50485
#        77216
#        101623
#        119349
#        136681
#        150181
#        164298
#        183716
#        199576
#        214808
#        231890
#        252131
#        269300
#        284978
#        297848
#
# Disc length: 4305 seconds
#
# Revision: 0
# Processed by: cddbd v1.5.2PL0 Copyright (c) Steve Scherf et al.
# Submitted via: ExactAudioCopyFreeDBPlugin 1.0
#
DISCID=0210cf12
DTITLE=Christian Rannenberg - Old School Blues Piano Stylings
DYEAR=2017
DGENRE=Blues
TTITLE0=New Town Shuffle
TTITLE1=Tupelo Revisited
TTITLE2=Oakland Walk
TTITLE3=Too late to cry
TTITLE4=Pinetop is in the house
TTITLE5=West Madison Blues
TTITLE6=Fifth Floor Stomp
TTITLE7=Drinkin´ with Brother
TTITLE8=Fathaland Bounce
TTITLE9=Mr. Millers´s Blues
TTITLE10=Rampart and Dumaine
TTITLE11=Bloodstains on the wall
TTITLE12=Drinkin´ bad whiskey
TTITLE13=Walter DAvis Blues
TTITLE14=Good Bye Baby
TTITLE15=Merry weather blues
TTITLE16=Rent man blues
TTITLE17=God bless the child
EXTD=
EXTT0=
EXTT1=
EXTT2=
EXTT3=
EXTT4=
EXTT5=
EXTT6=
EXTT7=
EXTT8=
EXTT9=
EXTT10=
EXTT11=
EXTT12=
EXTT13=
EXTT14=
EXTT15=
EXTT16=
EXTT17=
PLAYORDER=
